<?xml version="1.0" encoding="UTF-8" standalone="no"?>
<!DOCTYPE svg PUBLIC "-//W3C//DTD SVG 1.1//EN"
 "http://www.w3.org/Graphics/SVG/1.1/DTD/svg11.dtd">
<!-- Generated by graphviz version 3.0.0 (20220226.1711)
 -->
<!-- Title: dependencies Pages: 1 -->
<svg width="592pt" height="174pt"
 viewBox="0.00 0.00 592.00 173.80" xmlns="http://www.w3.org/2000/svg" xmlns:xlink="http://www.w3.org/1999/xlink">
<g id="graph0" class="graph" transform="scale(1 1) rotate(0) translate(4 169.8)">
<title>dependencies</title>
<polygon fill="white" stroke="transparent" points="-4,4 -4,-169.8 588,-169.8 588,4 -4,4"/>
<text text-anchor="middle" x="292" y="-8.2" font-family="sans-serif" font-size="14.00">dependencies</text>
<g id="clust1" class="cluster">
<title>cluster_ClientsModule</title>
<polygon fill="none" stroke="black" stroke-dasharray="1,5" points="8,-32.8 8,-157.8 576,-157.8 576,-32.8 8,-32.8"/>
</g>
<g id="clust2" class="cluster">
<title>cluster_ClientsModule_declarations</title>
<polygon fill="none" stroke="black" points="16,-40.8 16,-92.8 568,-92.8 568,-40.8 16,-40.8"/>
</g>
<!-- PageAddClientComponent -->
<g id="node1" class="node">
<title>PageAddClientComponent</title>
<polygon fill="#ffffb3" stroke="black" points="560.38,-84.8 393.62,-84.8 393.62,-48.8 560.38,-48.8 560.38,-84.8"/>
<text text-anchor="middle" x="477" y="-62.6" font-family="Times,serif" font-size="14.00">PageAddClientComponent</text>
</g>
<!-- ClientsModule -->
<g id="node4" class="node">
<title>ClientsModule</title>
<polygon fill="#8dd3c7" stroke="black" points="342.72,-149.8 339.72,-153.8 318.72,-153.8 315.72,-149.8 243.28,-149.8 243.28,-113.8 342.72,-113.8 342.72,-149.8"/>
<text text-anchor="middle" x="293" y="-127.6" font-family="Times,serif" font-size="14.00">ClientsModule</text>
</g>
<!-- PageAddClientComponent&#45;&gt;ClientsModule -->
<g id="edge1" class="edge">
<title>PageAddClientComponent&#45;&gt;ClientsModule</title>
<path fill="none" stroke="black" d="M477,-84.91C477,-104.14 477,-131.8 477,-131.8 477,-131.8 352.79,-131.8 352.79,-131.8"/>
<polygon fill="black" stroke="black" points="352.79,-128.3 342.79,-131.8 352.79,-135.3 352.79,-128.3"/>
</g>
<!-- PageEditClientComponent -->
<g id="node2" class="node">
<title>PageEditClientComponent</title>
<polygon fill="#ffffb3" stroke="black" points="376.1,-84.8 209.9,-84.8 209.9,-48.8 376.1,-48.8 376.1,-84.8"/>
<text text-anchor="middle" x="293" y="-62.6" font-family="Times,serif" font-size="14.00">PageEditClientComponent</text>
</g>
<!-- PageEditClientComponent&#45;&gt;ClientsModule -->
<g id="edge2" class="edge">
<title>PageEditClientComponent&#45;&gt;ClientsModule</title>
<path fill="none" stroke="black" d="M293,-84.91C293,-84.91 293,-103.79 293,-103.79"/>
<polygon fill="black" stroke="black" points="289.5,-103.79 293,-113.79 296.5,-103.79 289.5,-103.79"/>
</g>
<!-- PageListOrdersComponent -->
<g id="node3" class="node">
<title>PageListOrdersComponent</title>
<polygon fill="#ffffb3" stroke="black" points="192.42,-84.8 23.58,-84.8 23.58,-48.8 192.42,-48.8 192.42,-84.8"/>
<text text-anchor="middle" x="108" y="-62.6" font-family="Times,serif" font-size="14.00">PageListOrdersComponent</text>
</g>
<!-- PageListOrdersComponent&#45;&gt;ClientsModule -->
<g id="edge3" class="edge">
<title>PageListOrdersComponent&#45;&gt;ClientsModule</title>
<path fill="none" stroke="black" d="M108,-84.91C108,-104.14 108,-131.8 108,-131.8 108,-131.8 232.94,-131.8 232.94,-131.8"/>
<polygon fill="black" stroke="black" points="232.94,-135.3 242.94,-131.8 232.94,-128.3 232.94,-135.3"/>
</g>
</g>
</svg>
