<?xml version="1.0" encoding="UTF-8" standalone="no"?>
<!DOCTYPE svg PUBLIC "-//W3C//DTD SVG 1.1//EN"
 "http://www.w3.org/Graphics/SVG/1.1/DTD/svg11.dtd">
<!-- Generated by graphviz version 3.0.0 (20220226.1711)
 -->
<!-- Title: dependencies Pages: 1 -->
<svg width="2743pt" height="253pt"
 viewBox="0.00 0.00 2743.00 252.80" xmlns="http://www.w3.org/2000/svg" xmlns:xlink="http://www.w3.org/1999/xlink">
<g id="graph0" class="graph" transform="scale(1 1) rotate(0) translate(4 248.8)">
<title>dependencies</title>
<polygon fill="white" stroke="transparent" points="-4,4 -4,-248.8 2739,-248.8 2739,4 -4,4"/>
<text text-anchor="middle" x="1367.5" y="-8.2" font-family="sans-serif" font-size="14.00">dependencies</text>
<g id="clust1" class="cluster">
<title>cluster_AppModule</title>
<polygon fill="none" stroke="black" stroke-dasharray="1,5" points="8,-32.8 8,-236.8 403,-236.8 403,-32.8 8,-32.8"/>
</g>
<g id="clust2" class="cluster">
<title>cluster_AppModule_declarations</title>
<polygon fill="none" stroke="black" points="16,-40.8 16,-92.8 138,-92.8 138,-40.8 16,-40.8"/>
</g>
<g id="clust4" class="cluster">
<title>cluster_AppModule_imports</title>
<polygon fill="none" stroke="black" points="146,-40.8 146,-92.8 395,-92.8 395,-40.8 146,-40.8"/>
</g>
<g id="clust6" class="cluster">
<title>cluster_AppModule_bootstrap</title>
<polygon fill="none" stroke="black" points="156,-176.8 156,-228.8 280,-228.8 280,-176.8 156,-176.8"/>
</g>
<g id="clust14" class="cluster">
<title>cluster_ClientsModule</title>
<polygon fill="none" stroke="black" stroke-dasharray="1,5" points="779,-32.8 779,-160.8 1348,-160.8 1348,-32.8 779,-32.8"/>
</g>
<g id="clust15" class="cluster">
<title>cluster_ClientsModule_declarations</title>
<polygon fill="none" stroke="black" points="787,-40.8 787,-92.8 1340,-92.8 1340,-40.8 787,-40.8"/>
</g>
<g id="clust23" class="cluster">
<title>cluster_CoreModule</title>
<polygon fill="none" stroke="black" stroke-dasharray="1,5" points="411,-100.8 411,-168.8 771,-168.8 771,-100.8 411,-100.8"/>
</g>
<g id="clust26" class="cluster">
<title>cluster_CoreModule_exports</title>
<polygon fill="none" stroke="black" points="419,-108.8 419,-160.8 763,-160.8 763,-108.8 419,-108.8"/>
</g>
<g id="clust35" class="cluster">
<title>cluster_LoginModule</title>
<polygon fill="none" stroke="black" stroke-dasharray="1,5" points="1744,-32.8 1744,-160.8 2521,-160.8 2521,-32.8 1744,-32.8"/>
</g>
<g id="clust36" class="cluster">
<title>cluster_LoginModule_declarations</title>
<polygon fill="none" stroke="black" points="1752,-40.8 1752,-92.8 2513,-92.8 2513,-40.8 1752,-40.8"/>
</g>
<g id="clust45" class="cluster">
<title>cluster_OrdersModule</title>
<polygon fill="none" stroke="black" stroke-dasharray="1,5" points="1356,-32.8 1356,-160.8 1736,-160.8 1736,-32.8 1356,-32.8"/>
</g>
<g id="clust46" class="cluster">
<title>cluster_OrdersModule_declarations</title>
<polygon fill="none" stroke="black" points="1364,-40.8 1364,-92.8 1728,-92.8 1728,-40.8 1364,-40.8"/>
</g>
<g id="clust54" class="cluster">
<title>cluster_PageNotFoundModule</title>
<polygon fill="none" stroke="black" stroke-dasharray="1,5" points="2529,-32.8 2529,-160.8 2727,-160.8 2727,-32.8 2529,-32.8"/>
</g>
<g id="clust55" class="cluster">
<title>cluster_PageNotFoundModule_declarations</title>
<polygon fill="none" stroke="black" points="2537,-40.8 2537,-92.8 2719,-92.8 2719,-40.8 2537,-40.8"/>
</g>
<!-- AppComponent -->
<g id="node1" class="node">
<title>AppComponent</title>
<polygon fill="#ffffb3" stroke="black" points="129.94,-84.8 24.06,-84.8 24.06,-48.8 129.94,-48.8 129.94,-84.8"/>
<text text-anchor="middle" x="77" y="-62.6" font-family="Times,serif" font-size="14.00">AppComponent</text>
</g>
<!-- AppModule -->
<g id="node2" class="node">
<title>AppModule</title>
<polygon fill="#8dd3c7" stroke="black" points="259.66,-152.8 256.66,-156.8 235.66,-156.8 232.66,-152.8 176.34,-152.8 176.34,-116.8 259.66,-116.8 259.66,-152.8"/>
<text text-anchor="middle" x="218" y="-130.6" font-family="Times,serif" font-size="14.00">AppModule</text>
</g>
<!-- AppComponent&#45;&gt;AppModule -->
<g id="edge1" class="edge">
<title>AppComponent&#45;&gt;AppModule</title>
<path fill="none" stroke="black" d="M77,-85.02C77,-105.17 77,-134.8 77,-134.8 77,-134.8 166.08,-134.8 166.08,-134.8"/>
<polygon fill="black" stroke="black" points="166.08,-138.3 176.08,-134.8 166.08,-131.3 166.08,-138.3"/>
</g>
<!-- AppComponent  -->
<g id="node5" class="node">
<title>AppComponent </title>
<polygon fill="#80b1d3" stroke="black" points="272.44,-220.8 163.56,-220.8 163.56,-184.8 272.44,-184.8 272.44,-220.8"/>
<text text-anchor="middle" x="218" y="-198.6" font-family="Times,serif" font-size="14.00">AppComponent </text>
</g>
<!-- AppModule&#45;&gt;AppComponent  -->
<g id="edge4" class="edge">
<title>AppModule&#45;&gt;AppComponent </title>
<path fill="none" stroke="black" stroke-dasharray="1,5" d="M218,-153.02C218,-153.02 218,-174.53 218,-174.53"/>
<polygon fill="black" stroke="black" points="214.5,-174.53 218,-184.53 221.5,-174.53 214.5,-174.53"/>
</g>
<!-- AppRoutingModule -->
<g id="node3" class="node">
<title>AppRoutingModule</title>
<polygon fill="#8dd3c7" stroke="black" points="282.28,-84.8 279.28,-88.8 258.28,-88.8 255.28,-84.8 153.72,-84.8 153.72,-48.8 282.28,-48.8 282.28,-84.8"/>
<text text-anchor="middle" x="218" y="-62.6" font-family="Times,serif" font-size="14.00">AppRoutingModule</text>
</g>
<!-- AppRoutingModule&#45;&gt;AppModule -->
<g id="edge2" class="edge">
<title>AppRoutingModule&#45;&gt;AppModule</title>
<path fill="none" stroke="black" d="M218,-85.02C218,-85.02 218,-106.53 218,-106.53"/>
<polygon fill="black" stroke="black" points="214.5,-106.53 218,-116.53 221.5,-106.53 214.5,-106.53"/>
</g>
<!-- CoreModule -->
<g id="node4" class="node">
<title>CoreModule</title>
<polygon fill="#8dd3c7" stroke="black" points="387.27,-84.8 384.27,-88.8 363.27,-88.8 360.27,-84.8 300.73,-84.8 300.73,-48.8 387.27,-48.8 387.27,-84.8"/>
<text text-anchor="middle" x="344" y="-62.6" font-family="Times,serif" font-size="14.00">CoreModule</text>
</g>
<!-- CoreModule&#45;&gt;AppModule -->
<g id="edge3" class="edge">
<title>CoreModule&#45;&gt;AppModule</title>
<path fill="none" stroke="black" d="M344,-85.02C344,-105.17 344,-134.8 344,-134.8 344,-134.8 269.96,-134.8 269.96,-134.8"/>
<polygon fill="black" stroke="black" points="269.96,-131.3 259.96,-134.8 269.96,-138.3 269.96,-131.3"/>
</g>
<!-- IconsModule  -->
<g id="node10" class="node">
<title>IconsModule </title>
<polygon fill="#fb8072" stroke="black" points="754.88,-152.8 661.12,-152.8 661.12,-116.8 754.88,-116.8 754.88,-152.8"/>
<text text-anchor="middle" x="708" y="-130.6" font-family="Times,serif" font-size="14.00">IconsModule </text>
</g>
<!-- CoreModule&#45;&gt;IconsModule  -->
<g id="edge8" class="edge">
<title>CoreModule&#45;&gt;IconsModule </title>
<path fill="none" stroke="black" stroke-dasharray="5,2" d="M387.55,-57.8C484.16,-57.8 708,-57.8 708,-57.8 708,-57.8 708,-106.55 708,-106.55"/>
<polygon fill="black" stroke="black" points="704.5,-106.55 708,-116.55 711.5,-106.55 704.5,-106.55"/>
</g>
<!-- TemplatesModule  -->
<g id="node11" class="node">
<title>TemplatesModule </title>
<polygon fill="#fb8072" stroke="black" points="643.86,-152.8 522.14,-152.8 522.14,-116.8 643.86,-116.8 643.86,-152.8"/>
<text text-anchor="middle" x="583" y="-130.6" font-family="Times,serif" font-size="14.00">TemplatesModule </text>
</g>
<!-- CoreModule&#45;&gt;TemplatesModule  -->
<g id="edge9" class="edge">
<title>CoreModule&#45;&gt;TemplatesModule </title>
<path fill="none" stroke="black" stroke-dasharray="5,2" d="M387.28,-66.8C456.15,-66.8 583,-66.8 583,-66.8 583,-66.8 583,-106.58 583,-106.58"/>
<polygon fill="black" stroke="black" points="579.5,-106.58 583,-116.58 586.5,-106.58 579.5,-106.58"/>
</g>
<!-- UiModule  -->
<g id="node12" class="node">
<title>UiModule </title>
<polygon fill="#fb8072" stroke="black" points="504.55,-152.8 427.45,-152.8 427.45,-116.8 504.55,-116.8 504.55,-152.8"/>
<text text-anchor="middle" x="466" y="-130.6" font-family="Times,serif" font-size="14.00">UiModule </text>
</g>
<!-- CoreModule&#45;&gt;UiModule  -->
<g id="edge10" class="edge">
<title>CoreModule&#45;&gt;UiModule </title>
<path fill="none" stroke="black" stroke-dasharray="5,2" d="M387.36,-75.8C422.42,-75.8 466,-75.8 466,-75.8 466,-75.8 466,-106.78 466,-106.78"/>
<polygon fill="black" stroke="black" points="462.5,-106.78 466,-116.78 469.5,-106.78 462.5,-106.78"/>
</g>
<!-- PageAddClientComponent -->
<g id="node6" class="node">
<title>PageAddClientComponent</title>
<polygon fill="#ffffb3" stroke="black" points="1145.38,-84.8 978.62,-84.8 978.62,-48.8 1145.38,-48.8 1145.38,-84.8"/>
<text text-anchor="middle" x="1062" y="-62.6" font-family="Times,serif" font-size="14.00">PageAddClientComponent</text>
</g>
<!-- ClientsModule -->
<g id="node9" class="node">
<title>ClientsModule</title>
<polygon fill="#8dd3c7" stroke="black" points="1111.72,-152.8 1108.72,-156.8 1087.72,-156.8 1084.72,-152.8 1012.28,-152.8 1012.28,-116.8 1111.72,-116.8 1111.72,-152.8"/>
<text text-anchor="middle" x="1062" y="-130.6" font-family="Times,serif" font-size="14.00">ClientsModule</text>
</g>
<!-- PageAddClientComponent&#45;&gt;ClientsModule -->
<g id="edge5" class="edge">
<title>PageAddClientComponent&#45;&gt;ClientsModule</title>
<path fill="none" stroke="black" d="M1062,-85.02C1062,-85.02 1062,-106.53 1062,-106.53"/>
<polygon fill="black" stroke="black" points="1058.5,-106.53 1062,-116.53 1065.5,-106.53 1058.5,-106.53"/>
</g>
<!-- PageEditClientComponent -->
<g id="node7" class="node">
<title>PageEditClientComponent</title>
<polygon fill="#ffffb3" stroke="black" points="961.1,-84.8 794.9,-84.8 794.9,-48.8 961.1,-48.8 961.1,-84.8"/>
<text text-anchor="middle" x="878" y="-62.6" font-family="Times,serif" font-size="14.00">PageEditClientComponent</text>
</g>
<!-- PageEditClientComponent&#45;&gt;ClientsModule -->
<g id="edge6" class="edge">
<title>PageEditClientComponent&#45;&gt;ClientsModule</title>
<path fill="none" stroke="black" d="M878,-85.02C878,-105.17 878,-134.8 878,-134.8 878,-134.8 1002.21,-134.8 1002.21,-134.8"/>
<polygon fill="black" stroke="black" points="1002.21,-138.3 1012.21,-134.8 1002.21,-131.3 1002.21,-138.3"/>
</g>
<!-- PageListOrdersComponent -->
<g id="node8" class="node">
<title>PageListOrdersComponent</title>
<polygon fill="#ffffb3" stroke="black" points="1332.42,-84.8 1163.58,-84.8 1163.58,-48.8 1332.42,-48.8 1332.42,-84.8"/>
<text text-anchor="middle" x="1248" y="-62.6" font-family="Times,serif" font-size="14.00">PageListOrdersComponent</text>
</g>
<!-- PageListOrdersComponent&#45;&gt;ClientsModule -->
<g id="edge7" class="edge">
<title>PageListOrdersComponent&#45;&gt;ClientsModule</title>
<path fill="none" stroke="black" d="M1219.93,-85.09C1219.93,-107.01 1219.93,-140.8 1219.93,-140.8 1219.93,-140.8 1121.97,-140.8 1121.97,-140.8"/>
<polygon fill="black" stroke="black" points="1121.97,-137.3 1111.97,-140.8 1121.97,-144.3 1121.97,-137.3"/>
</g>
<!-- OrdersModule -->
<g id="node20" class="node">
<title>OrdersModule</title>
<polygon fill="#8dd3c7" stroke="black" points="1502.65,-152.8 1499.65,-156.8 1478.65,-156.8 1475.65,-152.8 1405.35,-152.8 1405.35,-116.8 1502.65,-116.8 1502.65,-152.8"/>
<text text-anchor="middle" x="1454" y="-130.6" font-family="Times,serif" font-size="14.00">OrdersModule</text>
</g>
<!-- PageListOrdersComponent&#45;&gt;OrdersModule -->
<g id="edge17" class="edge">
<title>PageListOrdersComponent&#45;&gt;OrdersModule</title>
<path fill="none" stroke="black" d="M1276.07,-85.07C1276.07,-103.36 1276.07,-128.8 1276.07,-128.8 1276.07,-128.8 1394.91,-128.8 1394.91,-128.8"/>
<polygon fill="black" stroke="black" points="1394.91,-132.3 1404.91,-128.8 1394.91,-125.3 1394.91,-132.3"/>
</g>
<!-- PageForgotPasswordComponent -->
<g id="node13" class="node">
<title>PageForgotPasswordComponent</title>
<polygon fill="#ffffb3" stroke="black" points="2504.55,-84.8 2305.45,-84.8 2305.45,-48.8 2504.55,-48.8 2504.55,-84.8"/>
<text text-anchor="middle" x="2405" y="-62.6" font-family="Times,serif" font-size="14.00">PageForgotPasswordComponent</text>
</g>
<!-- LoginModule -->
<g id="node17" class="node">
<title>LoginModule</title>
<polygon fill="#8dd3c7" stroke="black" points="2143.49,-152.8 2140.49,-156.8 2119.49,-156.8 2116.49,-152.8 2050.51,-152.8 2050.51,-116.8 2143.49,-116.8 2143.49,-152.8"/>
<text text-anchor="middle" x="2097" y="-130.6" font-family="Times,serif" font-size="14.00">LoginModule</text>
</g>
<!-- PageForgotPasswordComponent&#45;&gt;LoginModule -->
<g id="edge11" class="edge">
<title>PageForgotPasswordComponent&#45;&gt;LoginModule</title>
<path fill="none" stroke="black" d="M2405,-85.02C2405,-105.17 2405,-134.8 2405,-134.8 2405,-134.8 2153.78,-134.8 2153.78,-134.8"/>
<polygon fill="black" stroke="black" points="2153.78,-131.3 2143.78,-134.8 2153.78,-138.3 2153.78,-131.3"/>
</g>
<!-- PageResetPasswordComponent -->
<g id="node14" class="node">
<title>PageResetPasswordComponent</title>
<polygon fill="#ffffb3" stroke="black" points="2287.82,-84.8 2094.18,-84.8 2094.18,-48.8 2287.82,-48.8 2287.82,-84.8"/>
<text text-anchor="middle" x="2191" y="-62.6" font-family="Times,serif" font-size="14.00">PageResetPasswordComponent</text>
</g>
<!-- PageResetPasswordComponent&#45;&gt;LoginModule -->
<g id="edge12" class="edge">
<title>PageResetPasswordComponent&#45;&gt;LoginModule</title>
<path fill="none" stroke="black" d="M2118.92,-85.02C2118.92,-85.02 2118.92,-106.53 2118.92,-106.53"/>
<polygon fill="black" stroke="black" points="2115.42,-106.53 2118.92,-116.53 2122.42,-106.53 2115.42,-106.53"/>
</g>
<!-- PageSignInComponent -->
<g id="node15" class="node">
<title>PageSignInComponent</title>
<polygon fill="#ffffb3" stroke="black" points="2075.88,-84.8 1930.12,-84.8 1930.12,-48.8 2075.88,-48.8 2075.88,-84.8"/>
<text text-anchor="middle" x="2003" y="-62.6" font-family="Times,serif" font-size="14.00">PageSignInComponent</text>
</g>
<!-- PageSignInComponent&#45;&gt;LoginModule -->
<g id="edge13" class="edge">
<title>PageSignInComponent&#45;&gt;LoginModule</title>
<path fill="none" stroke="black" d="M2063.22,-85.02C2063.22,-85.02 2063.22,-106.53 2063.22,-106.53"/>
<polygon fill="black" stroke="black" points="2059.72,-106.53 2063.22,-116.53 2066.72,-106.53 2059.72,-106.53"/>
</g>
<!-- PageSignUpComponent -->
<g id="node16" class="node">
<title>PageSignUpComponent</title>
<polygon fill="#ffffb3" stroke="black" points="1911.83,-84.8 1760.17,-84.8 1760.17,-48.8 1911.83,-48.8 1911.83,-84.8"/>
<text text-anchor="middle" x="1836" y="-62.6" font-family="Times,serif" font-size="14.00">PageSignUpComponent</text>
</g>
<!-- PageSignUpComponent&#45;&gt;LoginModule -->
<g id="edge14" class="edge">
<title>PageSignUpComponent&#45;&gt;LoginModule</title>
<path fill="none" stroke="black" d="M1836,-85.07C1836,-103.36 1836,-128.8 1836,-128.8 1836,-128.8 2040.34,-128.8 2040.34,-128.8"/>
<polygon fill="black" stroke="black" points="2040.34,-132.3 2050.34,-128.8 2040.34,-125.3 2040.34,-132.3"/>
</g>
<!-- PageAddOrderComponent -->
<g id="node18" class="node">
<title>PageAddOrderComponent</title>
<polygon fill="#ffffb3" stroke="black" points="1719.8,-84.8 1554.2,-84.8 1554.2,-48.8 1719.8,-48.8 1719.8,-84.8"/>
<text text-anchor="middle" x="1637" y="-62.6" font-family="Times,serif" font-size="14.00">PageAddOrderComponent</text>
</g>
<!-- PageAddOrderComponent&#45;&gt;OrdersModule -->
<g id="edge15" class="edge">
<title>PageAddOrderComponent&#45;&gt;OrdersModule</title>
<path fill="none" stroke="black" d="M1637,-85.09C1637,-107.01 1637,-140.8 1637,-140.8 1637,-140.8 1513.04,-140.8 1513.04,-140.8"/>
<polygon fill="black" stroke="black" points="1513.04,-137.3 1503.04,-140.8 1513.04,-144.3 1513.04,-137.3"/>
</g>
<!-- PageEditOrderComponent -->
<g id="node19" class="node">
<title>PageEditOrderComponent</title>
<polygon fill="#ffffb3" stroke="black" points="1536.03,-84.8 1371.97,-84.8 1371.97,-48.8 1536.03,-48.8 1536.03,-84.8"/>
<text text-anchor="middle" x="1454" y="-62.6" font-family="Times,serif" font-size="14.00">PageEditOrderComponent</text>
</g>
<!-- PageEditOrderComponent&#45;&gt;OrdersModule -->
<g id="edge16" class="edge">
<title>PageEditOrderComponent&#45;&gt;OrdersModule</title>
<path fill="none" stroke="black" d="M1454,-85.02C1454,-85.02 1454,-106.53 1454,-106.53"/>
<polygon fill="black" stroke="black" points="1450.5,-106.53 1454,-116.53 1457.5,-106.53 1450.5,-106.53"/>
</g>
<!-- PageNotFoundComponent -->
<g id="node21" class="node">
<title>PageNotFoundComponent</title>
<polygon fill="#ffffb3" stroke="black" points="2710.83,-84.8 2545.17,-84.8 2545.17,-48.8 2710.83,-48.8 2710.83,-84.8"/>
<text text-anchor="middle" x="2628" y="-62.6" font-family="Times,serif" font-size="14.00">PageNotFoundComponent</text>
</g>
<!-- PageNotFoundModule -->
<g id="node22" class="node">
<title>PageNotFoundModule</title>
<polygon fill="#8dd3c7" stroke="black" points="2699.55,-152.8 2696.55,-156.8 2675.55,-156.8 2672.55,-152.8 2556.45,-152.8 2556.45,-116.8 2699.55,-116.8 2699.55,-152.8"/>
<text text-anchor="middle" x="2628" y="-130.6" font-family="Times,serif" font-size="14.00">PageNotFoundModule</text>
</g>
<!-- PageNotFoundComponent&#45;&gt;PageNotFoundModule -->
<g id="edge18" class="edge">
<title>PageNotFoundComponent&#45;&gt;PageNotFoundModule</title>
<path fill="none" stroke="black" d="M2628,-85.02C2628,-85.02 2628,-106.53 2628,-106.53"/>
<polygon fill="black" stroke="black" points="2624.5,-106.53 2628,-116.53 2631.5,-106.53 2624.5,-106.53"/>
</g>
</g>
</svg>
